<svg width="949" height="256" xmlns="http://www.w3.org/2000/svg">

 <g>
  <title>background</title>
  <rect fill="none" id="canvas_background" height="402" width="582" y="-1" x="-1"/>
 </g>
 <g>
  <title>Layer 1</title>
  <g id="svg_4" fill="#333" transform="translate(300,55.69499969482422) scale(0.699999988079071) "/>
  <text stroke="null" transform="matrix(1.5120014285143752,0,0,2.1363637447357178,-140.16647696130303,-14.701705947518349) " xml:space="preserve" text-anchor="start" font-family="'Courier New', Courier, monospace" font-size="100" id="svg_7" y="93.56516" x="291.04479" stroke-opacity="null" stroke-width="10" fill="#020202">GLAUCUS</text>
  <defs>
   <style type="text/css"/>
  </defs>
  <g stroke="null" id="svg_21">
   <path stroke="null" id="svg_12" fill="#F0D04D" d="m261.374487,147.452852l8.679566,-20.931404l-8.679566,-20.431696l0,-22.163077l-16.21089,-15.990635l-8.857864,-20.861022l-20.78246,-8.389453l-15.875689,-15.673919l-22.922041,0l-21.210376,-8.565406l-20.704009,8.565406l-22.458465,0l-16.203758,15.990635l-21.139057,8.748398l-8.501267,20.509116l-15.882821,15.666881l0,22.613517l-8.679566,20.931404l8.679566,20.438734l0,22.163077l16.203758,15.990635l8.864996,20.861022l20.78246,8.389453l15.875689,15.673919l22.922041,0l21.203244,8.565406l20.711141,-8.565406l22.458465,0l16.203758,-15.997673l21.139057,-8.74136l8.501267,-20.509116l15.882821,-15.666881l0,-22.620555z"/>
   <path stroke="null" id="svg_13" fill="#B18C25" d="m194.819264,57.970046a285.355875,281.602688 0 0 0 -101.886832,149.623642a147.702386,145.759708 0 0 0 10.020369,-3.54018a285.398666,281.644916 0 0 1 92.33717,-133.844151a144.821084,142.916302 0 0 0 -0.470708,-12.239311z"/>
   <path stroke="null" id="svg_14" fill="#FFFFFF" d="m168.830491,118.258682a99.982605,98.667568 0 0 0 51.278617,-15.096793a100.346334,99.026513 0 0 0 -6.418742,-59.387755c-61.099292,19.741959 -102.464519,75.772526 -103.68408,138.369669c9.899127,1.119063 20.126322,0.802347 30.424837,-1.147215c33.855298,-6.4047 60.457418,-28.863378 73.28777,-57.853443a152.437991,150.433027 0 0 1 -44.888403,-4.884463z"/>
   <path stroke="null" id="svg_15" fill="#CFA41E" d="m121.403119,185.036475c-3.879773,0 -7.802338,-0.218182 -11.660715,-0.654546l-2.061129,-0.232258l0.042792,-2.048096a152.980018,150.967925 0 0 1 105.253105,-140.459994l1.968414,-0.64047l0.827305,1.879181c3.0596,6.939598 5.334688,14.167759 6.761075,21.501492c2.531837,13.055734 2.46765,26.252231 -0.192562,39.230546l-0.192562,0.94311l-0.827305,0.513784a101.8797,100.539711 0 0 1 -35.174706,13.661014c-0.734589,0.140763 -1.469179,0.267449 -2.203768,0.394135c9.777884,1.548389 19.74833,2.14663 29.690248,1.766571l3.630155,-0.140763l-1.454915,3.286808a102.935226,101.581355 0 0 1 -94.405431,60.999487zm-9.06469,-4.919654a98.427843,97.133256 0 0 0 97.778837,-54.629978c-0.770249,0.014076 -1.540498,0.014076 -2.310747,0.014076c-13.365247,0 -26.680571,-1.703228 -39.567979,-5.074493l-15.675994,-4.096193l16.21089,-0.330792a97.372317,96.091612 0 0 0 49.281675,-14.23814c2.360671,-12.098548 2.353539,-24.387126 -0.007132,-36.54198a98.820099,97.520353 0 0 0 -5.648493,-18.651049a148.458371,146.50575 0 0 0 -100.061056,133.548549z"/>
   <path stroke="null" id="svg_16" fill="#B18C25" d="m125.675149,185.036475c-3.879773,0 -7.802338,-0.218182 -11.660715,-0.654546l-2.061129,-0.232258l0.042792,-2.048096a153.001414,150.989039 0 0 1 105.253105,-140.467033l1.968414,-0.64047l0.827305,1.879181c3.0596,6.93256 5.334688,14.167759 6.761075,21.501492c2.531837,13.048696 2.46765,26.252231 -0.192562,39.230546l-0.192562,0.94311l-0.827305,0.513784a101.8797,100.539711 0 0 1 -35.174706,13.661014c-0.734589,0.140763 -1.469179,0.267449 -2.203768,0.394135a152.188373,150.186692 0 0 0 29.690248,1.773609l3.630155,-0.140763l-1.454915,3.286808a102.935226,101.581355 0 0 1 -94.405431,60.999487zm-9.071822,-4.919654a98.427843,97.133256 0 0 0 97.778837,-54.629978a154.891377,152.854144 0 0 1 -41.871594,-5.060417l-15.675994,-4.096193l16.21089,-0.330792a97.372317,96.091612 0 0 0 49.281675,-14.23814a97.543483,96.260527 0 0 0 -0.007132,-36.54198a98.820099,97.520353 0 0 0 -5.648493,-18.651049a148.465503,146.512788 0 0 0 -100.068188,133.548549z"/>
   <path stroke="null" id="svg_17" fill="#FFFFFF" d="m213.690366,43.774134a100.346334,99.026513 0 0 1 6.418742,59.387755a99.718723,98.407158 0 0 1 -51.278617,15.096793c6.81813,1.780647 13.793163,3.103816 20.882307,3.934316c7.880789,0.929033 15.904216,1.252787 24.006095,0.950148c-12.830352,28.983026 -39.432472,51.448743 -73.28777,57.853443a100.510368,99.18839 0 0 1 -30.424837,1.147215c1.219561,-62.597143 42.584787,-118.62771 103.68408,-138.369669"/>
   <path stroke="null" id="svg_18" fill="#B18C25" d="m121.403119,185.036475c-3.879773,0 -7.802338,-0.218182 -11.660715,-0.654546l-2.061129,-0.232258l0.042792,-2.048096a152.980018,150.967925 0 0 1 105.253105,-140.459994l6.240444,-0.64047l-3.437593,1.879181c3.0596,6.93256 5.334688,14.167759 6.761075,21.501492c2.531837,13.048696 2.46765,26.252231 -0.192562,39.230546l-0.192562,0.94311l-0.827305,0.513784a101.8797,100.539711 0 0 1 -35.174706,13.661014c-0.734589,0.140763 -1.469179,0.267449 -2.203768,0.394135a152.188373,150.186692 0 0 0 29.690248,1.773609l3.630155,-0.140763l-1.454915,3.286808a102.935226,101.581355 0 0 1 -94.412563,60.992449zm-9.06469,-4.919654a98.427843,97.133256 0 0 0 97.778837,-54.629978a154.891377,152.854144 0 0 1 -41.871594,-5.060417l-15.675994,-4.096193l16.21089,-0.330792a97.372317,96.091612 0 0 0 49.281675,-14.23814a97.543483,96.260527 0 0 0 -0.007132,-36.54198a98.820099,97.520353 0 0 0 -5.648493,-18.651049a148.451239,146.498711 0 0 0 -100.068188,133.548549z"/>
   <path stroke="null" id="svg_19" fill="#B18C25" d="m198.770356,62.608174c-45.39477,37.93553 -80.562344,86.400105 -102.236297,143.810145l17.523166,-6.601768c16.788576,-52.497424 41.486469,-91.537941 84.834374,-126.214816c0.014264,-4.053964 0.206826,-6.897369 -0.121243,-10.993562z"/>
   <path stroke="null" id="svg_20" fill="#EDEEEE" d="m198.420892,56.794678a285.327347,281.574535 0 0 0 -101.886832,149.616604a147.702386,145.759708 0 0 0 10.020369,-3.54018a285.398666,281.644916 0 0 1 92.33717,-133.844151c0.014264,-4.053964 -0.142639,-8.13608 -0.470708,-12.232273z"/>
  </g>
 </g>
</svg>